<?xml version="1.0" standalone="no"?>
<!DOCTYPE svg PUBLIC "-//W3C//DTD SVG 20010904//EN"
 "http://www.w3.org/TR/2001/REC-SVG-20010904/DTD/svg10.dtd">
<svg version="1.0" xmlns="http://www.w3.org/2000/svg"
 width="173px" height="113px" viewBox="0 0 173 113"
 preserveAspectRatio="xMidYMid meet">
<g transform="translate(0.000000,113.000000) scale(0.100000,-0.100000)"
fill="#000000" stroke="none">
<path d="M765 1119 c-389 -49 -730 -325 -761 -617 l-6 -57 40 78 c171 332 493
515 871 494 202 -11 368 -75 476 -182 85 -83 110 -138 110 -240 0 -68 -4 -89
-29 -139 -35 -71 -128 -167 -208 -214 -71 -42 -188 -90 -239 -98 -37 -6 -39
-5 -39 21 l0 27 -96 -7 c-123 -9 -253 2 -261 22 -3 8 0 53 7 99 l12 84 114 0
c109 0 116 1 139 25 30 29 31 36 6 66 -18 22 -27 24 -123 25 -57 1 -106 2
-109 3 -11 2 29 173 42 182 27 16 104 22 230 16 92 -4 131 -2 138 6 15 18 29
113 19 130 -14 26 -115 41 -268 41 -148 0 -250 -14 -270 -39 -20 -24 -140
-658 -140 -741 l0 -42 85 -21 c307 -77 657 -31 918 120 94 55 215 176 254 254
77 152 64 297 -37 431 -153 203 -520 317 -875 273z"/>
</g>
</svg>
